<svg width="203" height="203" viewBox="0 0 203 203" fill="none" xmlns="http://www.w3.org/2000/svg">
<path d="M3.5 70.9906V8.12264L65.737 70.9906C65.737 70.9906 79.6706 68.217 105.68 67.2925C131.69 66.3679 148.41 70.9906 148.41 70.9906L196.713 3.5V70.9906L199.5 199.5L8.14455 197.651L3.5 70.9906Z" fill="white"/>
<path d="M157.699 134.783C157.699 137.847 155.203 140.331 152.125 140.331C149.047 140.331 146.552 137.847 146.552 134.783C146.552 131.72 149.047 129.236 152.125 129.236C155.203 129.236 157.699 131.72 157.699 134.783Z" fill="#39ACFF"/>
<path d="M62.9506 134.783C62.9506 137.847 60.4553 140.331 57.3772 140.331C54.299 140.331 51.8037 137.847 51.8037 134.783C51.8037 131.72 54.299 129.236 57.3772 129.236C60.4553 129.236 62.9506 131.72 62.9506 134.783Z" fill="#39ACFF"/>
<path d="M3.5 70.9906V8.12264L65.737 70.9906C65.737 70.9906 79.6706 68.217 105.68 67.2925C131.69 66.3679 148.41 70.9906 148.41 70.9906L196.713 3.5V70.9906L199.5 199.5L8.14455 197.651L3.5 70.9906Z" stroke="#39ACFF" stroke-width="7" stroke-linejoin="round"/>
<path d="M157.699 134.783C157.699 137.847 155.203 140.331 152.125 140.331C149.047 140.331 146.552 137.847 146.552 134.783C146.552 131.72 149.047 129.236 152.125 129.236C155.203 129.236 157.699 131.72 157.699 134.783Z" stroke="#39ACFF" stroke-width="7" stroke-linejoin="round"/>
<path d="M178.135 134.783C178.135 149.08 166.49 160.67 152.126 160.67C137.761 160.67 126.116 149.08 126.116 134.783C126.116 120.486 137.761 108.896 152.126 108.896C166.49 108.896 178.135 120.486 178.135 134.783Z" stroke="#39ACFF" stroke-width="7" stroke-linejoin="round"/>
<path d="M62.9506 134.783C62.9506 137.847 60.4553 140.331 57.3772 140.331C54.299 140.331 51.8037 137.847 51.8037 134.783C51.8037 131.72 54.299 129.236 57.3772 129.236C60.4553 129.236 62.9506 131.72 62.9506 134.783Z" stroke="#39ACFF" stroke-width="7" stroke-linejoin="round"/>
<path d="M83.3861 134.783C83.3861 149.08 71.7413 160.67 57.3767 160.67C43.012 160.67 31.3672 149.08 31.3672 134.783C31.3672 120.486 43.012 108.896 57.3767 108.896C71.7413 108.896 83.3861 120.486 83.3861 134.783Z" stroke="#39ACFF" stroke-width="7" stroke-linejoin="round"/>
</svg>
